<?xml version="1.0" encoding="UTF-8" standalone="no"?>
<!-- Created with Inkscape (http://www.inkscape.org/) -->

<svg
   xmlns:dc="http://purl.org/dc/elements/1.1/"
   xmlns:cc="http://creativecommons.org/ns#"
   xmlns:rdf="http://www.w3.org/1999/02/22-rdf-syntax-ns#"
   xmlns:svg="http://www.w3.org/2000/svg"
   xmlns="http://www.w3.org/2000/svg"
   version="1.1"
   width="16"
   height="16"
   id="svg2">
  <defs
     id="defs8" />
  <metadata
     id="metadata7">
    <rdf:RDF>
      <cc:Work
         rdf:about="">
        <dc:format>image/svg+xml</dc:format>
        <dc:type
           rdf:resource="http://purl.org/dc/dcmitype/StillImage" />
        <dc:title></dc:title>
      </cc:Work>
    </rdf:RDF>
  </metadata>
  <path
     d="m 14.53125,14 -1.4375,0 0,0.53125 -0.09375,0 0,1.46875 0.09375,0 c 0.8,0 1.4375,-0.66875 1.4375,-1.46875 l 0,-0.53125 z"
     id="path4175"
     style="fill:#4d4d4d;fill-opacity:1" />
  <path
     d="M 8,0 C 7.0545454,0 6.2429545,0.62515 5.9375,1.46875 l -3.03125,0 c -0.8,0 -1.4375,0.6375 -1.4375,1.4375 l 0,11.625 c 0,0.8 0.6375,1.46875 1.4375,1.46875 L 8,16 l 0,-1.46875 -5.09375,0 0,-11.625 1.46875,0 0,2.1875 7.25,0 0,-2.1875 1.46875,0 0,6.09375 1.4375,0 0,-6.09375 c 0,-0.8 -0.6375,-1.4375 -1.4375,-1.4375 l -3.03125,0 C 9.7570456,0.62515 8.9454545,0 8,0 z m 0,1.46875 c 0.4,0 0.71875,0.31875 0.71875,0.71875 C 8.71875,2.5875 8.4,2.90625 8,2.90625 7.6,2.90625 7.28125,2.5875 7.28125,2.1875 7.28125,1.7875 7.6,1.46875 8,1.46875 z"
     id="path2986"
     style="fill:#4d4d4d;fill-opacity:1" />
  <path
     d="m 9,7 0,3 -3,0 0,3 3,0 0,3 3,0 0,-3 3,0 0,-3 -3,0 0,-3 -3,0 z"
     id="rect3923"
     style="color:#000000;fill:#4d4d4d;fill-opacity:1;fill-rule:nonzero;stroke:none;stroke-width:2;marker:none;visibility:visible;display:inline;overflow:visible;enable-background:accumulate" />
</svg>
